<?xml version="1.0" standalone="no"?>
<!DOCTYPE svg PUBLIC "-//W3C//DTD SVG 20010904//EN"
 "http://www.w3.org/TR/2001/REC-SVG-20010904/DTD/svg10.dtd">
<svg version="1.0" xmlns="http://www.w3.org/2000/svg"
 width="160.000000pt" height="160.000000pt" viewBox="0 0 160.000000 160.000000"
 preserveAspectRatio="xMidYMid meet">
<metadata>
Created by potrace 1.14, written by Peter Selinger 2001-2017
</metadata>
<g transform="translate(0.000000,160.000000) scale(0.100000,-0.100000)"
fill="#000000" stroke="none">
<path d="M268 1423 c-24 -98 -21 -239 6 -366 13 -58 20 -111 16 -118 -13 -23
-102 -330 -106 -363 -15 -120 9 -211 76 -288 23 -26 26 -35 17 -48 -11 -13
-10 -13 7 0 16 13 20 12 37 -8 10 -13 20 -23 23 -22 36 2 35 -12 -1 -31 -35
-17 -88 -59 -75 -59 5 0 15 6 21 14 24 28 93 58 120 51 14 -4 46 -9 71 -11 25
-3 63 -7 85 -9 22 -3 73 -22 113 -42 98 -50 150 -50 244 0 44 23 87 38 125 42
85 9 123 15 148 21 21 5 99 -28 111 -47 3 -5 15 -14 27 -20 15 -7 13 -3 -8 15
-16 14 -45 33 -63 42 -30 15 -32 19 -18 32 13 13 18 13 40 -2 14 -9 26 -12 26
-7 0 5 -9 12 -19 16 -17 5 -13 12 29 54 84 84 116 184 96 307 -6 39 -52 201
-93 328 -17 51 -18 64 -7 107 23 88 26 113 30 229 3 113 -12 220 -35 243 -22
22 -229 -67 -359 -156 -82 -56 -84 -57 -156 -57 -58 0 -76 4 -94 20 -12 11
-25 20 -30 20 -4 0 -17 8 -28 19 -11 10 -47 33 -80 51 -32 18 -66 37 -74 42
-28 15 -175 68 -190 68 -12 0 -21 -19 -32 -67z"/>
<path d="M283 202 c-18 -9 -33 -21 -33 -25 0 -9 24 3 55 27 26 20 18 19 -22
-2z"/>
<path d="M1350 176 c0 -2 8 -10 18 -17 15 -13 16 -12 3 4 -13 16 -21 21 -21
13z"/>
<path d="M219 153 c-13 -16 -12 -17 4 -4 9 7 17 15 17 17 0 8 -8 3 -21 -13z"/>
</g>
</svg>
